<mxfile host="app.diagrams.net" modified="2022-11-06T13:14:02.674Z" agent="5.0 (Macintosh; Intel Mac OS X 10_15_7) AppleWebKit/537.36 (KHTML, like Gecko) Chrome/107.0.0.0 Safari/537.36" etag="FVpdq2v-fl8lV6iD6Wi1" version="20.5.2" type="github">
  <diagram id="R2lEEEUBdFMjLlhIrx00" name="Page-1">
    <mxGraphModel dx="1018" dy="528" grid="1" gridSize="10" guides="1" tooltips="1" connect="1" arrows="1" fold="1" page="1" pageScale="1" pageWidth="850" pageHeight="1100" math="0" shadow="0" extFonts="Permanent Marker^https://fonts.googleapis.com/css?family=Permanent+Marker">
      <root>
        <mxCell id="0" />
        <mxCell id="1" parent="0" />
        <mxCell id="XuO8XnObHlx6Pe1Dl6JW-28" style="edgeStyle=none;rounded=0;orthogonalLoop=1;jettySize=auto;html=1;entryX=0;entryY=1;entryDx=0;entryDy=0;" parent="1" source="XuO8XnObHlx6Pe1Dl6JW-1" target="XuO8XnObHlx6Pe1Dl6JW-4" edge="1">
          <mxGeometry relative="1" as="geometry" />
        </mxCell>
        <mxCell id="XuO8XnObHlx6Pe1Dl6JW-29" style="edgeStyle=none;rounded=0;orthogonalLoop=1;jettySize=auto;html=1;entryX=0;entryY=0.5;entryDx=0;entryDy=0;" parent="1" source="XuO8XnObHlx6Pe1Dl6JW-1" target="XuO8XnObHlx6Pe1Dl6JW-5" edge="1">
          <mxGeometry relative="1" as="geometry" />
        </mxCell>
        <mxCell id="XuO8XnObHlx6Pe1Dl6JW-31" style="edgeStyle=none;rounded=0;orthogonalLoop=1;jettySize=auto;html=1;entryX=0;entryY=0;entryDx=0;entryDy=0;" parent="1" source="XuO8XnObHlx6Pe1Dl6JW-1" target="XuO8XnObHlx6Pe1Dl6JW-6" edge="1">
          <mxGeometry relative="1" as="geometry" />
        </mxCell>
        <mxCell id="XuO8XnObHlx6Pe1Dl6JW-1" value="用户" style="shape=umlActor;verticalLabelPosition=bottom;verticalAlign=top;html=1;outlineConnect=0;" parent="1" vertex="1">
          <mxGeometry x="80" y="290" width="30" height="60" as="geometry" />
        </mxCell>
        <mxCell id="XuO8XnObHlx6Pe1Dl6JW-4" value="数据资产&lt;br&gt;总览看板" style="ellipse;whiteSpace=wrap;html=1;" parent="1" vertex="1">
          <mxGeometry x="180" y="130" width="90" height="60" as="geometry" />
        </mxCell>
        <mxCell id="XuO8XnObHlx6Pe1Dl6JW-5" value="营销人群&lt;br&gt;推送管理" style="ellipse;whiteSpace=wrap;html=1;" parent="1" vertex="1">
          <mxGeometry x="280" y="310" width="90" height="60" as="geometry" />
        </mxCell>
        <mxCell id="XuO8XnObHlx6Pe1Dl6JW-6" value="用户资产看板" style="ellipse;whiteSpace=wrap;html=1;" parent="1" vertex="1">
          <mxGeometry x="180" y="450" width="90" height="60" as="geometry" />
        </mxCell>
        <mxCell id="XuO8XnObHlx6Pe1Dl6JW-7" value="查询消费者体&lt;br&gt;系oneId数据&lt;br&gt;资产报告" style="ellipse;whiteSpace=wrap;html=1;" parent="1" vertex="1">
          <mxGeometry x="190" width="90" height="60" as="geometry" />
        </mxCell>
        <mxCell id="XuO8XnObHlx6Pe1Dl6JW-8" value="查询媒介&lt;br&gt;可运营&lt;br&gt;资产报告" style="ellipse;whiteSpace=wrap;html=1;" parent="1" vertex="1">
          <mxGeometry x="340" y="100" width="75" height="50" as="geometry" />
        </mxCell>
        <mxCell id="XuO8XnObHlx6Pe1Dl6JW-9" value="查询人群&lt;br&gt;数据资产&lt;br&gt;总览报告" style="ellipse;whiteSpace=wrap;html=1;" parent="1" vertex="1">
          <mxGeometry x="290" width="80" height="60" as="geometry" />
        </mxCell>
        <mxCell id="XuO8XnObHlx6Pe1Dl6JW-10" value="查询媒介&lt;br&gt;人群类型&lt;br&gt;分布报告" style="ellipse;whiteSpace=wrap;html=1;" parent="1" vertex="1">
          <mxGeometry x="367.5" y="170" width="82.5" height="50" as="geometry" />
        </mxCell>
        <mxCell id="XuO8XnObHlx6Pe1Dl6JW-11" value="查询微信&lt;br&gt;生态资产报告" style="ellipse;whiteSpace=wrap;html=1;" parent="1" vertex="1">
          <mxGeometry x="467.5" y="210" width="82.5" height="50" as="geometry" />
        </mxCell>
        <mxCell id="XuO8XnObHlx6Pe1Dl6JW-12" value="查询媒介&lt;br&gt;数据来源&lt;br&gt;分布报告" style="ellipse;whiteSpace=wrap;html=1;" parent="1" vertex="1">
          <mxGeometry x="360" y="230" width="77.5" height="50" as="geometry" />
        </mxCell>
        <mxCell id="XuO8XnObHlx6Pe1Dl6JW-13" value="查询企微&lt;br&gt;资产报告" style="ellipse;whiteSpace=wrap;html=1;" parent="1" vertex="1">
          <mxGeometry x="440" y="370" width="70" height="50" as="geometry" />
        </mxCell>
        <mxCell id="XuO8XnObHlx6Pe1Dl6JW-14" value="查询小程序&lt;br&gt;资产报告" style="ellipse;whiteSpace=wrap;html=1;" parent="1" vertex="1">
          <mxGeometry x="495" y="315" width="70" height="50" as="geometry" />
        </mxCell>
        <mxCell id="XuO8XnObHlx6Pe1Dl6JW-15" value="查询公众号&lt;br&gt;资产报告" style="ellipse;whiteSpace=wrap;html=1;" parent="1" vertex="1">
          <mxGeometry x="510" y="260" width="70" height="50" as="geometry" />
        </mxCell>
        <mxCell id="XuO8XnObHlx6Pe1Dl6JW-19" value="查询品牌&lt;br&gt;重合度报告" style="ellipse;whiteSpace=wrap;html=1;" parent="1" vertex="1">
          <mxGeometry x="300" y="580" width="70" height="50" as="geometry" />
        </mxCell>
        <mxCell id="XuO8XnObHlx6Pe1Dl6JW-20" value="查询非会员&lt;br&gt;资产报告" style="ellipse;whiteSpace=wrap;html=1;" parent="1" vertex="1">
          <mxGeometry x="377.5" y="570" width="70" height="50" as="geometry" />
        </mxCell>
        <mxCell id="XuO8XnObHlx6Pe1Dl6JW-21" value="查询CRM&lt;br&gt;指标资产报告" style="ellipse;whiteSpace=wrap;html=1;" parent="1" vertex="1">
          <mxGeometry x="402.5" y="510" width="97.5" height="50" as="geometry" />
        </mxCell>
        <mxCell id="XuO8XnObHlx6Pe1Dl6JW-22" value="查询会员&lt;br&gt;资产报告" style="ellipse;whiteSpace=wrap;html=1;" parent="1" vertex="1">
          <mxGeometry x="370" y="450" width="70" height="50" as="geometry" />
        </mxCell>
        <mxCell id="XuO8XnObHlx6Pe1Dl6JW-23" value="查询用户&lt;br&gt;资产报告" style="ellipse;whiteSpace=wrap;html=1;" parent="1" vertex="1">
          <mxGeometry x="332.5" y="400" width="70" height="50" as="geometry" />
        </mxCell>
        <mxCell id="XuO8XnObHlx6Pe1Dl6JW-32" value="" style="endArrow=none;html=1;rounded=0;entryX=0.5;entryY=1;entryDx=0;entryDy=0;exitX=0.5;exitY=0;exitDx=0;exitDy=0;" parent="1" source="XuO8XnObHlx6Pe1Dl6JW-4" target="XuO8XnObHlx6Pe1Dl6JW-9" edge="1">
          <mxGeometry width="50" height="50" relative="1" as="geometry">
            <mxPoint x="260" y="140" as="sourcePoint" />
            <mxPoint x="310" y="90" as="targetPoint" />
          </mxGeometry>
        </mxCell>
        <mxCell id="XuO8XnObHlx6Pe1Dl6JW-33" value="" style="endArrow=none;html=1;rounded=0;entryX=0.5;entryY=1;entryDx=0;entryDy=0;exitX=0.5;exitY=0;exitDx=0;exitDy=0;" parent="1" source="XuO8XnObHlx6Pe1Dl6JW-4" edge="1">
          <mxGeometry width="50" height="50" relative="1" as="geometry">
            <mxPoint x="170" y="140" as="sourcePoint" />
            <mxPoint x="245" y="60" as="targetPoint" />
          </mxGeometry>
        </mxCell>
        <mxCell id="XuO8XnObHlx6Pe1Dl6JW-34" value="" style="endArrow=none;html=1;rounded=0;entryX=0;entryY=0.5;entryDx=0;entryDy=0;exitX=1;exitY=0;exitDx=0;exitDy=0;" parent="1" source="0PXWtCqN1Tkab0CVANJh-1" target="XuO8XnObHlx6Pe1Dl6JW-10" edge="1">
          <mxGeometry width="50" height="50" relative="1" as="geometry">
            <mxPoint x="300" y="210" as="sourcePoint" />
            <mxPoint x="355" y="80" as="targetPoint" />
          </mxGeometry>
        </mxCell>
        <mxCell id="XuO8XnObHlx6Pe1Dl6JW-35" value="" style="endArrow=none;html=1;rounded=0;entryX=0;entryY=1;entryDx=0;entryDy=0;exitX=1;exitY=0;exitDx=0;exitDy=0;" parent="1" source="0PXWtCqN1Tkab0CVANJh-1" edge="1" target="XuO8XnObHlx6Pe1Dl6JW-8">
          <mxGeometry width="50" height="50" relative="1" as="geometry">
            <mxPoint x="260" y="140" as="sourcePoint" />
            <mxPoint x="402.5" y="100" as="targetPoint" />
          </mxGeometry>
        </mxCell>
        <mxCell id="XuO8XnObHlx6Pe1Dl6JW-36" value="" style="endArrow=none;html=1;rounded=0;entryX=0;entryY=0.5;entryDx=0;entryDy=0;exitX=1;exitY=0;exitDx=0;exitDy=0;" parent="1" source="0PXWtCqN1Tkab0CVANJh-1" target="XuO8XnObHlx6Pe1Dl6JW-12" edge="1">
          <mxGeometry width="50" height="50" relative="1" as="geometry">
            <mxPoint x="260" y="140" as="sourcePoint" />
            <mxPoint x="375" y="100" as="targetPoint" />
          </mxGeometry>
        </mxCell>
        <mxCell id="XuO8XnObHlx6Pe1Dl6JW-37" value="" style="endArrow=none;html=1;rounded=0;entryX=0;entryY=1;entryDx=0;entryDy=0;exitX=1;exitY=0.5;exitDx=0;exitDy=0;" parent="1" source="XuO8XnObHlx6Pe1Dl6JW-5" target="XuO8XnObHlx6Pe1Dl6JW-11" edge="1">
          <mxGeometry width="50" height="50" relative="1" as="geometry">
            <mxPoint x="310" y="190" as="sourcePoint" />
            <mxPoint x="385" y="110" as="targetPoint" />
          </mxGeometry>
        </mxCell>
        <mxCell id="XuO8XnObHlx6Pe1Dl6JW-38" value="" style="endArrow=none;html=1;rounded=0;exitX=1;exitY=0.5;exitDx=0;exitDy=0;entryX=0;entryY=0.5;entryDx=0;entryDy=0;" parent="1" source="XuO8XnObHlx6Pe1Dl6JW-5" target="XuO8XnObHlx6Pe1Dl6JW-15" edge="1">
          <mxGeometry width="50" height="50" relative="1" as="geometry">
            <mxPoint x="390" y="260" as="sourcePoint" />
            <mxPoint x="440" y="210" as="targetPoint" />
          </mxGeometry>
        </mxCell>
        <mxCell id="XuO8XnObHlx6Pe1Dl6JW-39" value="" style="endArrow=none;html=1;rounded=0;entryX=0;entryY=0.5;entryDx=0;entryDy=0;exitX=1;exitY=0.5;exitDx=0;exitDy=0;" parent="1" target="XuO8XnObHlx6Pe1Dl6JW-14" edge="1" source="XuO8XnObHlx6Pe1Dl6JW-5">
          <mxGeometry width="50" height="50" relative="1" as="geometry">
            <mxPoint x="360" y="320" as="sourcePoint" />
            <mxPoint x="435" y="240" as="targetPoint" />
          </mxGeometry>
        </mxCell>
        <mxCell id="XuO8XnObHlx6Pe1Dl6JW-40" value="" style="endArrow=none;html=1;rounded=0;entryX=0;entryY=0.5;entryDx=0;entryDy=0;exitX=1;exitY=0.5;exitDx=0;exitDy=0;" parent="1" source="XuO8XnObHlx6Pe1Dl6JW-5" edge="1" target="XuO8XnObHlx6Pe1Dl6JW-13">
          <mxGeometry width="50" height="50" relative="1" as="geometry">
            <mxPoint x="380" y="455" as="sourcePoint" />
            <mxPoint x="455" y="375" as="targetPoint" />
          </mxGeometry>
        </mxCell>
        <mxCell id="XuO8XnObHlx6Pe1Dl6JW-41" value="" style="endArrow=none;html=1;rounded=0;exitX=1;exitY=0.5;exitDx=0;exitDy=0;" parent="1" source="XuO8XnObHlx6Pe1Dl6JW-6" edge="1">
          <mxGeometry width="50" height="50" relative="1" as="geometry">
            <mxPoint x="390" y="380" as="sourcePoint" />
            <mxPoint x="330" y="430" as="targetPoint" />
          </mxGeometry>
        </mxCell>
        <mxCell id="XuO8XnObHlx6Pe1Dl6JW-42" value="" style="endArrow=none;html=1;rounded=0;entryX=0.5;entryY=1;entryDx=0;entryDy=0;exitX=1;exitY=0.5;exitDx=0;exitDy=0;" parent="1" source="XuO8XnObHlx6Pe1Dl6JW-6" edge="1">
          <mxGeometry width="50" height="50" relative="1" as="geometry">
            <mxPoint x="295" y="560" as="sourcePoint" />
            <mxPoint x="370" y="480" as="targetPoint" />
          </mxGeometry>
        </mxCell>
        <mxCell id="XuO8XnObHlx6Pe1Dl6JW-43" value="" style="endArrow=none;html=1;rounded=0;entryX=0.5;entryY=1;entryDx=0;entryDy=0;exitX=1;exitY=0.5;exitDx=0;exitDy=0;" parent="1" source="XuO8XnObHlx6Pe1Dl6JW-6" edge="1">
          <mxGeometry width="50" height="50" relative="1" as="geometry">
            <mxPoint x="327.5" y="610" as="sourcePoint" />
            <mxPoint x="402.5" y="530" as="targetPoint" />
          </mxGeometry>
        </mxCell>
        <mxCell id="XuO8XnObHlx6Pe1Dl6JW-44" value="" style="endArrow=none;html=1;rounded=0;entryX=0;entryY=0;entryDx=0;entryDy=0;exitX=1;exitY=0.5;exitDx=0;exitDy=0;" parent="1" source="XuO8XnObHlx6Pe1Dl6JW-6" target="XuO8XnObHlx6Pe1Dl6JW-20" edge="1">
          <mxGeometry width="50" height="50" relative="1" as="geometry">
            <mxPoint x="390" y="440" as="sourcePoint" />
            <mxPoint x="440" y="390" as="targetPoint" />
          </mxGeometry>
        </mxCell>
        <mxCell id="XuO8XnObHlx6Pe1Dl6JW-45" value="" style="endArrow=none;html=1;rounded=0;entryX=0.5;entryY=1;entryDx=0;entryDy=0;exitX=1;exitY=0.5;exitDx=0;exitDy=0;" parent="1" source="XuO8XnObHlx6Pe1Dl6JW-6" edge="1">
          <mxGeometry width="50" height="50" relative="1" as="geometry">
            <mxPoint x="250" y="660" as="sourcePoint" />
            <mxPoint x="325" y="580" as="targetPoint" />
          </mxGeometry>
        </mxCell>
        <mxCell id="0PXWtCqN1Tkab0CVANJh-1" value="营销人群&lt;br&gt;推送管理" style="ellipse;whiteSpace=wrap;html=1;" vertex="1" parent="1">
          <mxGeometry x="220" y="210" width="90" height="60" as="geometry" />
        </mxCell>
        <mxCell id="0PXWtCqN1Tkab0CVANJh-2" style="edgeStyle=none;rounded=0;orthogonalLoop=1;jettySize=auto;html=1;entryX=0;entryY=0.5;entryDx=0;entryDy=0;" edge="1" parent="1" target="0PXWtCqN1Tkab0CVANJh-1">
          <mxGeometry relative="1" as="geometry">
            <mxPoint x="120" y="308.79611105153526" as="sourcePoint" />
            <mxPoint x="203.18019484660545" y="191.21320343559626" as="targetPoint" />
          </mxGeometry>
        </mxCell>
      </root>
    </mxGraphModel>
  </diagram>
</mxfile>
